<svg width="38" height="38" viewBox="0 0 38 38" fill="none" xmlns="http://www.w3.org/2000/svg">
<g clip-path="url(#clip0_1594_4627)">
<circle cx="19.5" cy="18.5" r="13.5" fill="#B61918"/>
<path d="M19 0C8.50658 0 0 8.50666 0 19C0 29.4933 8.50658 38 19 38C29.4934 38 38 29.4933 38 19C38 8.50666 29.4934 0 19 0ZM19 28.2178C19 28.2178 9.08653 22.0617 9.08653 16.5682C9.08653 13.5865 11.5037 11.1693 14.4854 11.1693C16.374 11.1693 18.0352 12.1398 19 13.6085C19.9648 12.1397 21.6259 11.1693 23.5146 11.1693C26.4962 11.1693 28.9135 13.5865 28.9135 16.5682C28.9135 22.0617 19 28.2178 19 28.2178Z" fill="#CCBFAF"/>
</g>
<defs>
<clipPath id="clip0_1594_4627">
<rect width="38" height="38" fill="white"/>
</clipPath>
</defs>
</svg>
