<svg width="38" height="39" viewBox="0 0 38 39" fill="none" xmlns="http://www.w3.org/2000/svg">
<path d="M19 0.5C8.50658 0.5 0 9.00666 0 19.5C0 29.9933 8.50658 38.5 19 38.5C29.4934 38.5 38 29.9933 38 19.5C38 9.00666 29.4934 0.5 19 0.5ZM19 28.7178C19 28.7178 9.08653 22.5617 9.08653 17.0682C9.08653 14.0865 11.5037 11.6693 14.4854 11.6693C16.374 11.6693 18.0352 12.6398 19 14.1085C19.9648 12.6397 21.6259 11.6693 23.5146 11.6693C26.4962 11.6693 28.9135 14.0865 28.9135 17.0682C28.9135 22.5617 19 28.7178 19 28.7178Z" fill="#CCBFAF"/>
</svg>
